<?xml version="1.0" encoding="utf-8"?>
<!-- Generator: Adobe Illustrator 23.0.1, SVG Export Plug-In . SVG Version: 6.00 Build 0)  -->
<svg version="1.1" id="Layer_1" xmlns="http://www.w3.org/2000/svg" xmlns:xlink="http://www.w3.org/1999/xlink" x="0px" y="0px"
	 viewBox="0 0 335.81 177.3" style="enable-background:new 0 0 335.81 177.3;" xml:space="preserve">
<style type="text/css">
	.st0{fill:#009347;}
	.st1{fill:#B2D463;}
</style>
<g>
	<path class="st0" d="M128.41,125.32c0-12.91,0-25.7,0-38.69c16.53-0.54,32.92,0.31,49.62,0.06c-0.3,1.52-0.55,2.8-0.82,4.08
		c-0.54,2.59-0.06,4.92,2.03,6.63c0.76,0.62,1.85,1,2.85,1.16c7.98,1.25,15.99,0.08,23.98,0.13c3.41,0.02,6.82-0.04,10.22-0.09
		c6.38-0.09,12.76-0.21,19.13-0.31c0.52-0.01,1.05,0,1.8,0c0.6,2.48,1.2,4.94,1.82,7.51c-0.55,0.09-0.86,0.19-1.18,0.19
		c-8.44,0.1-16.88,0.19-25.32,0.3c-8.69,0.11-17.37,0.29-26.06,0.35c-3.3,0.02-6.55-0.55-9.64-1.79c-4.42-1.77-6.56-5.18-6.99-9.82
		c-0.01-0.14-0.07-0.27-0.21-0.74c-9.29,0.16-18.65,0.32-28.16,0.49c-0.05,0.44-0.19,0.86-0.15,1.26c0.54,4.72,1.4,9.36,3.43,13.7
		c2.91,6.22,7.34,10.85,14.03,12.88c2.11,0.64,4.37,0.86,6.58,1.07c3.86,0.36,7.74,0.57,11.61,0.81c1.15,0.07,2.3,0.05,3.45,0.08
		c6.09,0.1,12.19,0.36,18.28,0.25c9.01-0.15,18.02-0.53,27.03-0.85c3.77-0.14,7.55-0.34,11.31-0.58c6.06-0.38,12.17-0.47,18.16-1.34
		c5.63-0.82,11.11-2.57,15.86-6.03c3.95-2.88,5.68-7.08,7.11-11.5c1.69-5.22,1.81-10.62,1.33-15.96c-0.41-4.53-1.16-9.17-2.66-13.44
		c-1.81-5.18-5.41-9.17-10.71-11.38c-5.03-2.1-10.16-3.42-15.66-3.44c-11.95-0.03-23.91-0.23-35.86-0.34
		c-8.78-0.08-17.57-0.09-26.35-0.22c-4.29-0.06-8.18-1.54-11.38-4.38c-2.27-2.02-3.33-4.82-3.89-7.81c-0.4-2.12-0.28-4.14,0.47-6.18
		c1.17-3.22,3.57-5.11,6.51-6.46c3.34-1.53,6.85-2.23,10.55-2.24c15.27-0.05,30.53-0.22,45.8-0.26c5.06-0.01,8.54,2.57,10.63,7.12
		c0.36,0.78,0.74,1.57,0.93,2.4c0.28,1.21,1.05,1.46,2.11,1.41c6.5-0.29,13.01-0.54,19.51-0.86c1.71-0.08,3.4-0.37,5.23-0.57
		c-0.11-1.06-0.18-2-0.32-2.93c-0.57-3.97-0.83-8-2.81-11.65c-2.2-4.03-5.5-6.74-9.6-8.62c-4.66-2.13-9.58-3.09-14.65-3.47
		c-1.48-0.11-2.96-0.26-4.43-0.26c-22.42-0.02-44.84-0.07-67.27,0.05c-2.86,0.01-5.75,0.8-8.56,1.51c-2.43,0.62-4.83,1.49-7.12,2.51
		c-6.56,2.95-11.24,7.73-13.24,14.77c-1.36,4.79-1.73,9.7-1.25,14.69c0.19,1.98-0.11,4.02-0.25,6.02c-0.03,0.38-0.37,0.75-0.64,1.27
		c-5.6,0-11.2,0-16.97,0c-0.04-0.47-0.11-0.98-0.12-1.49c-0.12-11.75-0.22-23.5-0.33-35.24c-0.02-2-0.12-2.09-2.15-2.09
		c-8.98,0-17.96-0.01-26.94-0.01c-0.57,0-1.14,0-2.01,0c-0.2,12.92-0.4,25.7-0.61,38.6c-0.48,0.13-0.87,0.31-1.26,0.33
		c-5.76,0.13-11.51,0.27-17.27,0.36c-8.45,0.13-16.89,0.23-25.34,0.34c-0.48,0.01-0.95,0-1.66,0c0-2.92,0-5.75,0-8.91
		c12.56,0.16,25.24,0.31,38.17,0.47c-0.13-13.46-0.26-26.67-0.39-39.98c16.35,0,32.51,0,48.99,0c0,13.16,0,26.28,0,39.64
		c0.89-0.23,1.41-0.36,2.03-0.52c0.09-1.92,0.19-3.79,0.26-5.66c0.21-5.78,1.18-11.42,3.54-16.72c2.34-5.25,6.06-9.3,11.24-11.86
		c4.92-2.44,10.25-3.29,15.63-4.2c7.32-1.25,14.63-0.69,21.93-0.73c20.69-0.12,41.39-0.01,62.08-0.08
		c3.57-0.01,6.86,0.87,10.14,2.04c3.49,1.25,6.73,3.02,9.42,5.56c2.99,2.83,5.16,6.26,6.56,10.17c2.25,6.3,2.51,12.84,2.5,19.42
		c0,1.68,0,3.35,0,5.14c-13.71,0-27.12,0-40.75,0c0-1.18-0.01-2.32,0-3.46c0.01-2.71-1.21-4.72-3.57-5.95
		c-1.83-0.95-3.78-1.51-5.9-1.46c-8.92,0.22-17.84,0.39-26.76,0.58c-4.89,0.11-9.79,0.06-14.67,0.41c-2.53,0.18-5.05,0.92-7.48,1.7
		c-1.99,0.64-3.16,2.91-2.35,4.57c0.6,1.23,1.7,2.32,2.8,3.18c1.41,1.11,3.11,1.57,4.97,1.53c3.41-0.08,6.82-0.06,10.23-0.03
		c15.21,0.1,30.42,0.19,45.63,0.35c4.07,0.04,8.16,0.13,12.21,0.53c4.32,0.43,8.53,1.47,12.46,3.43c3.69,1.84,6.89,4.29,9.49,7.5
		c1.48,1.82,3.11,3.53,4.4,5.47c2.15,3.22,3.16,6.9,4,10.66c1.17,5.23,0.98,10.53,0.76,15.8c-0.14,3.31-1.08,6.58-1.58,9.88
		c-0.57,3.75-2.02,7.16-3.94,10.37c-3.03,5.07-7.41,8.65-12.87,10.74c-3.4,1.3-6.95,2.3-10.51,3.07c-2.79,0.61-5.69,0.71-8.55,0.97
		c-2.75,0.25-5.51,0.42-8.27,0.62c-2.38,0.18-4.76,0.43-7.14,0.53c-4.02,0.17-8.05,0.23-12.08,0.35
		c-6.09,0.18-12.17,0.53-18.26,0.53c-10.45,0.01-20.9-0.16-31.36-0.34c-3.54-0.06-7.1-0.12-10.6-0.6c-2.8-0.38-5.62-1.12-8.24-2.18
		c-5.2-2.11-9.5-5.62-13.43-9.59c-0.79-0.79-1.55-1.62-2.32-2.43c-0.13,0.06-0.26,0.13-0.39,0.19c0,5.63,0,11.26,0,17.15
		c-0.61,0.11-1.17,0.29-1.74,0.29c-11.09,0.05-22.18,0.09-33.27,0.13c-4.51,0.01-9.03,0.02-13.54,0.03c-0.48,0-0.95,0-1.54,0
		c0-13.79,0-27.48,0-41.48c-12.74,0-25.52,0-38.53,0c0-2.83,0-5.35,0-8.03c15.46,0,31.02,0,46.83,0c0,13.22,0,26.47,0,39.88
		C107.03,125.32,117.6,125.32,128.41,125.32z"/>
	<path d="M162.23,156.73c-0.98,0.4-1.93,0.87-2.94,1.18c-4.87,1.51-9.75,3-14.64,4.44c-5.25,1.55-10.49,3.16-15.79,4.51
		c-5.32,1.35-10.71,2.42-16.08,3.58c-4.48,0.97-8.97,1.95-13.47,2.8c-2.88,0.54-5.81,0.86-8.72,1.26
		c-4.13,0.57-8.27,1.13-12.41,1.66c-1.32,0.17-2.66,0.26-3.99,0.32c-6.02,0.3-12.03,0.83-18.05,0.8c-5.28-0.03-10.57-0.62-15.84-1.1
		c-5.43-0.49-10.76-1.55-15.99-3.13c-4.75-1.44-9.3-3.39-13.33-6.24c-5.89-4.17-9.66-9.81-10.79-17.17
		c-0.6-3.9,0.34-7.48,1.28-11.12c1.11-4.29,3.07-8.2,5.21-12.07c2.6-4.7,5.71-9.03,9.18-13.04c4.31-4.97,8.93-9.69,13.66-14.26
		c3.66-3.54,7.7-6.7,11.57-10.02c1.13-0.97,2.27-1.92,3.69-3.12c-5.26,5.14-10.29,9.96-15.21,14.9c-4.32,4.33-7.99,9.22-11.33,14.34
		c-2.55,3.9-4.79,7.97-6.32,12.41c-1.39,4-2.28,8.07-1.99,12.31c0.29,4.28,1.71,8.15,4.46,11.5c4.32,5.27,10.04,8.16,16.47,9.78
		c3.94,0.99,7.93,1.77,11.91,2.58c1.11,0.23,2.27,0.3,3.41,0.32c5.85,0.12,11.7,0.43,17.54,0.24c5.6-0.18,11.18-0.86,16.77-1.38
		c3.45-0.32,6.9-0.69,10.34-1.18c3.09-0.44,6.14-1.08,9.22-1.63c2.75-0.5,5.5-0.97,8.24-1.51c3.43-0.68,6.86-1.44,10.29-2.14
		c0.51-0.1,1.03-0.17,1.55-0.18c7.01-0.01,14.02-0.03,21.02,0.01c5.94,0.04,11.87,0.17,17.81,0.24c1.07,0.01,2.15-0.09,3.22-0.14
		C162.18,156.57,162.21,156.65,162.23,156.73z"/>
	<path d="M237.44,3.68c1.23-0.25,2.46-0.56,3.7-0.72c4.71-0.62,9.43-1.11,14.13-1.79c10.56-1.53,21.18-1.12,31.79-1.11
		c1.55,0,3.11,0.34,4.65,0.57c3.05,0.46,6.12,0.83,9.13,1.45c3.15,0.65,6.27,1.46,9.36,2.35c5.14,1.49,9.91,3.81,14.25,6.92
		c3.15,2.25,6.01,4.9,7.91,8.33c1.23,2.22,2.5,4.55,3.03,6.99c0.71,3.26,0.43,6.59-0.46,9.93c-1.87,7.03-5.23,13.29-9.35,19.13
		c-2.75,3.89-5.8,7.58-8.96,11.15c-3.14,3.56-6.46,6.99-9.92,10.24c-3.8,3.56-7.85,6.86-11.81,10.26c-1.8,1.55-3.63,3.05-5.67,4.76
		c-0.23-2.01-0.46-3.73-0.63-5.46c-0.32-3.18-0.49-6.39-0.94-9.55c-0.31-2.17,0.75-3.57,2.04-5.03c3.22-3.66,6.48-7.29,9.5-11.12
		c3.99-5.07,7.71-10.37,10.48-16.23c2.2-4.66,3.86-9.52,3.37-14.83c-0.21-2.32-1.04-4.43-2.29-6.36c-2.36-3.64-5.33-6.75-8.91-9.15
		c-2.47-1.65-5.15-3.01-7.81-4.34c-5.18-2.59-10.82-3.77-16.44-4.84c-3.72-0.71-7.54-0.94-11.32-1.21
		c-4.15-0.3-8.32-0.52-12.48-0.55c-4.99-0.04-9.98,0.15-14.97,0.26c-0.42,0.01-0.83,0.18-1.25,0.28
		C237.54,3.89,237.49,3.79,237.44,3.68z"/>
	<path class="st1" d="M161.22,72.43c1.26,0.33,2.53,0.66,3.8,0.99c5.02,1.32,10.17,2.1,15.33,1.98c8.04-0.19,16.08-0.85,24.12-1.29
		c2.92-0.16,5.85-0.28,8.77-0.38c4.02-0.13,8.06-0.43,12.07-0.26c4.49,0.19,8.97,0.72,13.42,1.32c3.07,0.41,6.13,1.01,9.1,1.86
		c3.81,1.09,7.64,2.2,11.07,4.4c-1.32-0.26-2.64-0.56-3.97-0.79c-2.92-0.5-5.87-0.86-8.76-1.47c-5.74-1.21-11.55-0.89-17.33-0.92
		c-7.24-0.04-14.51-0.06-21.72,0.51c-7.92,0.63-15.82,0.4-23.73,0.36c-3.12-0.02-6.26-0.74-9.36-1.31
		c-2.52-0.46-5.05-1.02-7.47-1.83c-1.93-0.64-3.7-1.74-5.55-2.63C161.07,72.79,161.15,72.61,161.22,72.43z"/>
	<path d="M137.67,149.02c-1.16,0-2.21,0-3.35,0c-1.01-1.3-2.05-2.64-3.07-3.95c-1.39,0.61-1.39,0.61-1.56,3.86
		c-0.36,0.04-0.75,0.08-1.25,0.13c0-2.88,0-5.65,0-8.5c0.41,0,0.77,0,1.31,0c0,1.15,0,2.32,0,3.78c1.3-1.16,2.43-2.03,3.39-3.06
		c0.71-0.76,1.44-0.98,2.62-0.66c-1.25,1.14-2.4,2.19-3.64,3.32c1.33,1.68,2.59,3.27,4,5.05c1.23-2.89,2.39-5.63,3.58-8.44
		c0.49,0,0.99,0,1.58,0c1.23,2.76,2.47,5.53,3.76,8.41c-0.53,0.04-0.98,0.07-1.52,0.1c-0.4-0.86-0.8-1.71-1.2-2.57
		c-1.28,0-2.51,0-3.76,0C138.26,147.34,137.98,148.14,137.67,149.02z M141.86,145.32c-0.44-1.08-0.86-2.07-1.41-3.41
		c-0.5,1.33-0.86,2.31-1.28,3.41C140.16,145.32,140.95,145.32,141.86,145.32z"/>
	<path d="M234.7,140.53c0.61,0,1.18,0,1.92,0c0,1.4,0,2.78,0,4.16c0,1.39,0,2.78,0,4.28c-0.44,0.03-0.79,0.06-1.29,0.09
		c0-2.01,0-3.96,0-5.92c-0.12-0.03-0.24-0.06-0.36-0.09c-0.73,1.98-1.45,3.96-2.18,5.93c-0.49,0-0.9,0-1.32,0
		c-0.81-2.2-1.59-4.35-2.38-6.5c-0.08,0.02-0.16,0.03-0.23,0.05c0,2.1,0,4.2,0,6.42c-0.44,0.03-0.8,0.06-1.26,0.09
		c0-2.83,0-5.6,0-8.47c0.68,0,1.37,0,2.14,0c0.78,2.18,1.57,4.4,2.44,6.83C233.06,145.01,233.88,142.78,234.7,140.53z"/>
	<path d="M151.97,144.45c0.42,0.66,0.94,1.17,1.08,1.76c0.36,1.55-0.68,2.71-2.39,2.84c-0.24,0.02-0.48,0.01-0.72,0.01
		c-1.24,0-2.49,0-3.85,0c0-2.82,0-5.59,0-8.54c1.6,0,3.28-0.17,4.91,0.05C152.75,140.79,153.14,142.64,151.97,144.45z M147.4,148.1
		c1.25-0.13,2.34-0.16,3.39-0.4c0.37-0.09,0.9-0.71,0.87-1.03c-0.05-0.47-0.47-1.19-0.86-1.28c-1.07-0.26-2.2-0.26-3.4-0.37
		C147.4,146.12,147.4,146.96,147.4,148.1z M147.4,143.96c1.01,0,1.87-0.01,2.73,0c0.8,0.01,1.1-0.46,1.1-1.18
		c-0.01-0.69-0.25-1.22-1.06-1.23c-0.9-0.01-1.79,0-2.76,0C147.4,142.39,147.4,143.08,147.4,143.96z"/>
	<path d="M87.84,140.48c1.95,0,3.81-0.03,5.66,0.01c1.24,0.03,1.79,1.07,1.86,2c0.05,0.7-0.59,1.5-1.04,2.18
		c-0.17,0.26-0.67,0.31-1.03,0.47c0.92,1.23,1.85,2.45,2.84,3.75c-1.2,0.35-1.94,0.13-2.47-0.93c-0.4-0.8-1-1.52-1.6-2.19
		c-0.75-0.84-1.72-0.88-2.86-0.48c0,1.18,0,2.36,0,3.66c-0.52,0.03-0.91,0.05-1.36,0.07C87.84,146.18,87.84,143.45,87.84,140.48z
		 M89.2,143.93c1.31,0,2.46,0.11,3.57-0.06c0.4-0.06,0.92-0.77,0.97-1.23c0.03-0.33-0.59-1-0.99-1.05
		c-1.16-0.14-2.34-0.05-3.56-0.05C89.2,142.42,89.2,143.08,89.2,143.93z"/>
	<path d="M283.62,142.87c-0.77,0.07-1.13,0.1-1.47,0.12c-0.83-1.91-2.69-2.16-4.51-1.29c-1.46,0.7-1.9,3.44-0.93,5.1
		c0.98,1.67,3.13,1.85,5.45,0.44c0-0.49,0-1,0-1.61c-0.93-0.05-1.8-0.09-2.74-0.13c0.46-1.13,0.66-1.17,4.04-0.91
		c0,1.07,0,2.15,0,3.29c-2.5,2.17-6.32,1.96-7.97-0.49c-1.24-1.85-0.94-4.68,0.65-6.19c1.26-1.2,4.62-1.48,6.02-0.38
		C282.73,141.27,283.04,142.03,283.62,142.87z"/>
	<path d="M267.24,148.98c-0.58,0-0.94,0-1.36,0c0-2.83,0-5.61,0-8.37c0.99-0.43,1.56,0.11,2.05,0.81c1,1.44,2.01,2.88,3,4.33
		c0.18,0.27,0.32,0.58,0.47,0.86c0.14-0.09,0.27-0.18,0.41-0.27c0-1.89,0-3.78,0-5.77c0.52,0,0.9,0,1.34,0c0,2.82,0,5.59,0,8.41
		c-0.48,0-0.9,0-1.38,0c-1.41-1.95-2.84-3.93-4.27-5.91c-0.09,0.03-0.17,0.05-0.26,0.08C267.24,145.04,267.24,146.92,267.24,148.98z
		"/>
	<path d="M197.8,149.01c-0.56,0-0.89,0-1.32,0c0-2.83,0-5.64,0-8.49c0.52,0,0.99,0,1.43,0c1.47,2.03,2.92,4.03,4.36,6.03
		c0.1-0.01,0.19-0.03,0.28-0.05c0-1.95,0-3.91,0-5.94c0.51,0,0.82,0,1.18,0c0,2.78,0,5.56,0,8.34c-0.9,0.39-1.42,0-1.91-0.71
		c-1.24-1.79-2.53-3.55-4.02-5.62C197.8,144.89,197.8,146.87,197.8,149.01z"/>
	<path d="M247.5,140.5c1.59,0,3.17-0.15,4.71,0.03c2.63,0.32,3.66,3.6,2.7,5.97c-0.7,1.73-1.87,2.54-3.7,2.55
		c-1.2,0.01-2.39,0-3.71,0C247.5,146.21,247.5,143.42,247.5,140.5z M248.78,147.95c1.73-0.01,3.47,0.46,4.52-1.27
		c0.73-1.21,0.58-3.61-0.32-4.48c-1.23-1.18-2.75-0.54-4.19-0.61C248.78,143.78,248.78,145.78,248.78,147.95z"/>
	<path d="M115.5,149.05c0-2.89,0-5.61,0-8.46c1.67,0,3.4-0.22,5.04,0.06c2.03,0.34,2.94,2.45,2.58,5.18
		c-0.24,1.83-1.74,3.19-3.59,3.22C118.24,149.07,116.95,149.05,115.5,149.05z M116.85,148.04c1.65-0.23,3.34,0.46,4.38-1.33
		c0.8-1.38,0.79-2.76-0.01-4.05c-1.05-1.72-2.77-1.01-4.37-1.07C116.85,143.73,116.85,145.77,116.85,148.04z"/>
	<path d="M98.5,141.87c-0.4,0.84-0.05,1.38,0.75,1.64c0.85,0.28,1.73,0.47,2.59,0.69c1.47,0.37,2.53,1.27,2.48,2.36
		c-0.05,1.32-0.87,2.17-2.12,2.56c-2.2,0.68-5.38,0.09-5.45-3.03c0.34-0.04,0.69-0.08,1.01-0.11c0.89,1.99,2.29,2.71,3.94,1.98
		c0.45-0.2,1.01-0.74,1.03-1.14c0.02-0.4-0.5-1.01-0.93-1.2c-0.76-0.34-1.62-0.43-2.45-0.63c-1.82-0.43-2.75-1.78-2.16-3.16
		c0.53-1.24,2.04-1.86,4.06-1.64c1.66,0.18,2.33,0.78,2.72,2.84c-0.68-0.44-1.2-0.65-1.52-1.01
		C101.63,141.09,100.24,141,98.5,141.87z"/>
	<path d="M210.84,141.87c-0.38,0.84-0.05,1.39,0.77,1.65c0.85,0.27,1.72,0.47,2.58,0.69c1.47,0.38,2.53,1.27,2.47,2.37
		c-0.06,1.32-0.88,2.18-2.14,2.56c-2.35,0.7-5.42-0.05-5.43-3.02c0.63-0.22,1.03-0.29,1.35,0.6c0.52,1.45,2.84,1.98,4.11,1.05
		c0.84-0.61,0.88-1.44-0.03-1.95c-0.72-0.4-1.58-0.55-2.39-0.8c-0.45-0.14-1.06-0.1-1.33-0.39c-0.58-0.62-1.34-1.39-1.36-2.12
		c-0.02-0.64,0.71-1.57,1.36-1.93c2.11-1.19,4.9-0.24,5.46,1.71c0.02,0.08-0.03,0.18-0.09,0.44c-0.43-0.1-0.99-0.07-1.26-0.34
		C213.46,140.98,212.83,140.86,210.84,141.87z"/>
	<path d="M187.58,140.55c2.33,0,4.61,0,6.89,0c0.23,0.91-0.3,0.99-0.95,0.99c-1.43-0.01-2.85,0-4.35,0c0,0.85,0,1.54,0,2.4
		c1.6,0,3.15,0,4.76,0c0,0.43,0,0.7,0,1.08c-1.56,0-3.08,0-4.72,0c0,0.99,0,1.87,0,2.79c1.83,0.16,3.68,0.32,5.54,0.52
		c0.04,0,0.05,0.35,0.08,0.63c-2.42,0-4.78,0-7.25,0C187.58,146.14,187.58,143.39,187.58,140.55z"/>
	<path d="M238.83,140.53c2.26,0,4.41,0,6.63,0c0,0.31,0,0.58,0,1.01c-1.72,0-3.47,0-5.29,0c0,0.86,0,1.55,0,2.28
		c1.7,0.14,3.33,0.27,4.97,0.43c0.06,0.01,0.07,0.42,0.14,0.88c-1.74,0-3.39,0-5.11,0c0,1.02,0,1.83,0,2.8c1.83,0,3.67,0,5.59,0
		c0,0.44,0,0.7,0,1.05c-2.26,0-4.54,0-6.92,0C238.83,146.19,238.83,143.43,238.83,140.53z"/>
	<path d="M179.72,148.98c-0.64,0.03-1.09,0.06-1.52,0.08c-1.42-2.77-1.42-2.77-4.83-2.53c-0.37,0.8-0.75,1.65-1.14,2.48
		c-0.48,0-0.9,0-1.41,0c0.58-1.46,1.12-2.87,1.7-4.25c0.59-1.4,1.23-2.77,1.88-4.22c0.37,0,0.79,0,1.5,0
		C177.1,143.2,178.38,146.02,179.72,148.98z M176.51,145.31c-0.47-1.2-0.87-2.23-1.33-3.4c-0.5,1.21-0.93,2.25-1.41,3.4
		C174.73,145.31,175.52,145.31,176.51,145.31z"/>
	<path d="M259.37,140.62c0.99-0.3,1.64-0.15,2.02,0.73c1.09,2.52,2.2,5.03,3.34,7.63c-0.54,0-0.99,0-1.5,0
		c-0.38-0.82-0.77-1.66-1.16-2.49c-1.28,0-2.42,0-3.67,0c-0.35,0.78-0.71,1.58-1.11,2.47c-0.37,0-0.77,0-1.42,0
		C257.08,146.06,258.25,143.3,259.37,140.62z M261.61,145.33c-0.5-1.2-0.91-2.18-1.41-3.37c-0.51,1.27-0.92,2.27-1.37,3.37
		C259.82,145.33,260.57,145.33,261.61,145.33z"/>
	<path d="M164.19,140.48c1.8,0,3.52-0.07,5.23,0.02c1.33,0.08,2.11,1.1,2.09,2.46c-0.01,1.41-1.04,2.52-2.5,2.61
		c-1.09,0.06-2.19,0.01-3.49,0.01c0,0.68,0.01,1.23,0,1.79c-0.01,0.52-0.06,1.04-0.09,1.61c-0.45,0-0.81,0-1.24,0
		C164.19,146.19,164.19,143.46,164.19,140.48z M165.57,144.62c1.3-0.13,2.45-0.14,3.53-0.42c0.41-0.11,0.92-0.92,0.86-1.35
		c-0.06-0.47-0.66-1.16-1.12-1.24c-1.05-0.19-2.15-0.06-3.27-0.06C165.57,142.61,165.57,143.46,165.57,144.62z"/>
	<path d="M112,140.53c0.49,0,0.81,0,1.31,0c0,2.15,0.09,4.31-0.06,6.44c-0.04,0.63-0.65,1.38-1.21,1.77
		c-1.4,0.98-2.99,0.87-4.47,0.17c-1.38-0.65-1.68-1.95-1.65-3.38c0.03-1.63,0.01-3.25,0.01-4.98c0.46-0.02,0.82-0.03,1.23-0.05
		c0.05,0.28,0.1,0.51,0.12,0.74c0.1,1.81,0.14,3.63,0.31,5.44c0.1,1.1,1.01,1.66,2.28,1.6c1.33-0.06,2.07-0.75,2.11-1.96
		c0.03-0.96,0.03-1.92,0.03-2.88C112,142.52,112,141.61,112,140.53z"/>
	<path d="M224.33,140.56c0.48,0,0.84,0,1.21,0c0.04,0.14,0.12,0.27,0.12,0.41c0.01,1.83,0.13,3.66-0.04,5.47
		c-0.07,0.79-0.58,1.71-1.19,2.23c-1.33,1.13-2.96,0.91-4.44,0.29c-1.39-0.59-1.76-1.89-1.73-3.33c0.03-1.63,0.01-3.26,0.01-5.03
		c0.43-0.04,0.82-0.07,1.35-0.12c0,1.6-0.1,3.09,0.03,4.56c0.11,1.2-0.12,2.64,1.63,3.09c1.82,0.48,3.02-0.3,3.03-2.17
		C224.34,144.18,224.33,142.41,224.33,140.56z"/>
	<path d="M154.61,140.51c0.51,0,0.84,0,1.35,0c0,1.6-0.03,3.17,0.01,4.74c0.05,1.96,0.48,2.6,1.84,2.95
		c1.55,0.4,2.83-0.58,2.84-2.19c0.01-1.77,0-3.55,0-5.43c0.47,0,0.85,0,1.35,0c0,2.1,0.09,4.17-0.05,6.22
		c-0.04,0.64-0.59,1.39-1.12,1.82c-1.41,1.15-3.05,0.98-4.57,0.29c-1.37-0.62-1.7-1.94-1.66-3.38
		C154.64,143.92,154.61,142.29,154.61,140.51z"/>
	<path d="M179.19,140.52c2.45,0,4.78,0,7.24,0c0.02,0.3,0.03,0.56,0.06,0.98c-0.98,0-1.91,0-3,0c0,2.57,0,5,0,7.48
		c-0.56,0-0.97,0-1.49,0c0-2.45,0-4.83,0-7.39c-0.98,0-1.86,0-2.81,0C179.19,141.16,179.19,140.89,179.19,140.52z"/>
	<path d="M45.5,85.44c0.36-0.16,0.72-0.31,1.08-0.47l0.04-0.02c-0.36,0.15-0.73,0.31-1.09,0.46L45.5,85.44z"/>
	<path d="M160.33,71.91l-0.03,0.03L160.33,71.91z"/>
	<path d="M160.3,71.95c0.03,0.01,0.07,0.02,0.1,0.03c-0.02-0.02-0.05-0.04-0.07-0.06C160.33,71.91,160.3,71.95,160.3,71.95z"/>
	<path d="M46.58,84.97c0.02-0.01,0.04-0.03,0.06-0.04c-0.01,0.01-0.01,0.02-0.02,0.03L46.58,84.97z"/>
	<path d="M45.53,85.42c-0.01,0.03-0.02,0.07-0.03,0.1c0-0.02,0-0.05-0.01-0.07L45.53,85.42z"/>
</g>
</svg>
